<svg xmlns="http://www.w3.org/2000/svg" width="25.958" height="28.318" viewBox="0 0 25.958 28.318">
  <g id="trash" transform="translate(-25.758 -21.17)">
    <g id="Grupo_31122" data-name="Grupo 31122" transform="translate(25.758 21.17)">
      <path id="Caminho_30610" data-name="Caminho 30610" d="M44.061,4.885a.575.575,0,0,0-.424-.166h-5.7L36.65,1.641a2.555,2.555,0,0,0-1-1.162A2.6,2.6,0,0,0,34.2,0H28.3a2.6,2.6,0,0,0-1.456.479,2.554,2.554,0,0,0-1,1.162L24.556,4.719h-5.7a.568.568,0,0,0-.59.59v1.18a.568.568,0,0,0,.59.59h1.77V24.63a4.033,4.033,0,0,0,.866,2.609,2.6,2.6,0,0,0,2.083,1.079H38.918A2.57,2.57,0,0,0,41,27.2a4.186,4.186,0,0,0,.866-2.646V7.079h1.77a.568.568,0,0,0,.59-.59V5.309A.575.575,0,0,0,44.061,4.885ZM28.022,2.562a.519.519,0,0,1,.313-.2h5.844a.521.521,0,0,1,.313.2l.885,2.157h-8.26ZM39.508,24.557a2.089,2.089,0,0,1-.129.747,1.663,1.663,0,0,1-.267.5c-.092.1-.156.157-.194.157H23.579c-.037,0-.1-.052-.193-.157a1.654,1.654,0,0,1-.268-.5,2.1,2.1,0,0,1-.129-.747V7.079H39.508V24.557Z" transform="translate(-18.269)" fill="#f59515"/>
      <path id="Caminho_30611" data-name="Caminho 30611" d="M128.495,176.248h1.18a.568.568,0,0,0,.59-.59v-10.62a.567.567,0,0,0-.59-.59h-1.18a.567.567,0,0,0-.59.59v10.62a.568.568,0,0,0,.59.59Z" transform="translate(-120.825 -153.83)" fill="#f59515"/>
      <path id="Caminho_30612" data-name="Caminho 30612" d="M201.584,176.248h1.18a.568.568,0,0,0,.59-.59v-10.62a.567.567,0,0,0-.59-.59h-1.18a.567.567,0,0,0-.59.59v10.62a.568.568,0,0,0,.59.59Z" transform="translate(-189.195 -153.83)" fill="#f59515"/>
      <path id="Caminho_30613" data-name="Caminho 30613" d="M274.673,176.248h1.18a.567.567,0,0,0,.59-.59v-10.62a.567.567,0,0,0-.59-.59h-1.18a.567.567,0,0,0-.59.59v10.62a.567.567,0,0,0,.59.59Z" transform="translate(-257.564 -153.83)" fill="#f59515"/>
    </g>
  </g>
</svg>
