<svg xmlns="http://www.w3.org/2000/svg" width="28" height="28" viewBox="0 0 28 28">
  <g id="pencil" transform="translate(-0.001)">
    <g id="Grupo_31210" data-name="Grupo 31210" transform="translate(0.001)">
      <path id="Caminho_30676" data-name="Caminho 30676" d="M14,0A14,14,0,1,0,28,14,14,14,0,0,0,14,0Zm6.655,10.075-1.33,1.33L16.619,8.7,15.593,9.725,18.3,12.432,11.66,19.07,8.954,16.364,7.927,17.391,10.633,20.1l-.662.662-.013-.013a.524.524,0,0,1-.334.24L7.1,21.549a.525.525,0,0,1-.626-.627L7.037,18.4a.526.526,0,0,1,.241-.334l-.013-.013L17.949,7.368a.4.4,0,0,1,.568,0l2.139,2.139A.4.4,0,0,1,20.656,10.075Z" transform="translate(-0.001)" fill="#db8411"/>
    </g>
  </g>
</svg>
